:version 1.10
:name ASF
:units
  mass 1
  length 1
  angle deg
:documentation
  ASF file generated by Kaydara
:root
  axis xyz
  order  tx ty tz rx ry rz
  position 0 0 0
  orientation 0 0 0
:bonedata
  begin
    id 1
    name RightUpLegDummy
    direction -0.718183 -0.695806 0.00816078
    length 4.904
    axis 0 0 0 xyz
  end
  begin
    id 2
    name RightUpLeg
    direction -0.0736652 -0.994202 0.0783343
    length 17.4976
    axis -2.72909 -3.00389 -4.00133 xyz
    dof rx ry rz
  end
  begin
    id 3
    name RightLeg
    direction -0.0389037 -0.994596 -0.0962598
    length 16.5821
    axis 3.95836 -18.5909 -4.46993 xyz
    dof rx ry rz
  end
  begin
    id 4
    name RightFoot
    direction -0.311643 -0.412678 0.855906
    length 3.77069
    axis -1.99483 -18.8351 -3.27644 xyz
    dof rx ry rz
  end
  begin
    id 5
    name RightToes
    direction -0.317852 0.0389852 0.947339
    length 3.85082
    axis -2.00228 -18.1713 -3.25211 xyz
    dof rx ry rz
  end
  begin
    id 6
    name SpineDummy
    direction 8.3039e-015 1 4.44677e-016
    length 4.6813
    axis 0 0 0 xyz
  end
  begin
    id 7
    name Spine
    direction -0.000262373 0.999988 0.00493267
    length 10.1015
    axis -0.00246081 0.00062579 0.0150362 xyz
    dof rx ry rz
  end
  begin
    id 8
    name Spine1
    direction 0 0 0
    length 0
    axis -0.00349562 0.000650293 0.0196666 xyz
    dof rx ry rz
  end
  begin
    id 9
    name HEadDummy
    direction -0.000343232 0.999999 0.00123745
    length 3.43865
    axis -0.00349562 0.000650293 0.0196666 xyz
  end
  begin
    id 10
    name HEad
    direction -0.0461221 0.980933 0.188796
    length 5.12695
    axis -0.00351404 -7.04812 0.0199272 xyz
    dof rx ry rz
  end
  begin
    id 11
    name LeftShoulder1Dummy
    direction 0.998904 -0.0399089 -0.0244534
    length 3.5433
    axis -0.00349562 0.000650293 0.0196666 xyz
  end
  begin
    id 12
    name LeftShoulder1
    direction 0.99951 1.64443e-005 0.0312999
    length 4.05031
    axis -0.00349562 0.000650293 0.0196666 xyz
    dof rx ry rz
  end
  begin
    id 13
    name LeftArm
    direction 0.984791 0.0515299 0.165927
    length 12.9126
    axis -64.823 -10.7743 5.20463 xyz
    dof rx ry rz
  end
  begin
    id 14
    name LeftForeArm
    direction 0.984968 0.0534808 0.16425
    length 10.8596
    axis -30.0462 -7.70601 1.87451 xyz
    dof rx ry rz
  end
  begin
    id 15
    name LeftHand
    direction 0.975871 0.0289682 0.216418
    length 6.62295
    axis -20.1348 -6.98077 1.86072 xyz
    dof rx ry rz
  end
  begin
    id 16
    name RightShoulderDummy
    direction -0.998877 -0.0405946 -0.0244307
    length 3.5433
    axis -0.00349562 0.000650293 0.0196666 xyz
  end
  begin
    id 17
    name RightShoulder
    direction -0.998933 -0.0249743 -0.0388558
    length 4.05031
    axis -0.0205316 -4.02113 1.41395 xyz
    dof rx ry rz
  end
  begin
    id 18
    name RightArm
    direction -0.997559 0.068664 0.0127103
    length 12.9638
    axis -67.3882 1.84188 -6.15987 xyz
    dof rx ry rz
  end
  begin
    id 19
    name RightForeArm
    direction -0.991508 0.0912848 0.0926241
    length 10.8312
    axis -22.1975 3.41087 -4.28711 xyz
    dof rx ry rz
  end
  begin
    id 20
    name RightHand
    direction -0.989262 0.0600788 0.133232
    length 6.57864
    axis -12.2911 2.17515 -4.39675 xyz
    dof rx ry rz
  end
  begin
    id 21
    name LeftUpLegDummy
    direction 0.718183 -0.695806 0.00816078
    length 4.904
    axis 0 0 0 xyz
  end
  begin
    id 22
    name LeftUpLeg
    direction 0.0831398 -0.99469 0.0606531
    length 17.4976
    axis -1.71016 2.29552 4.63832 xyz
    dof rx ry rz
  end
  begin
    id 23
    name LeftLeg
    direction 0.0498442 -0.991778 -0.117862
    length 16.5821
    axis 5.13757 15.5727 5.13348 xyz
    dof rx ry rz
  end
  begin
    id 24
    name LeftFoot
    direction 0.269026 -0.433896 0.85986
    length 3.77069
    axis -0.576502 15.6961 4.10267 xyz
    dof rx ry rz
  end
  begin
    id 25
    name LeftToes
    direction 0.277311 0.0251143 0.960452
    length 3.85048
    axis -0.576502 15.6961 4.10267 xyz
    dof rx ry rz
  end
:hierarchy
  begin
    root RightUpLegDummy SpineDummy LeftUpLegDummy
    RightUpLegDummy RightUpLeg
    RightUpLeg RightLeg
    RightLeg RightFoot
    RightFoot RightToes
    SpineDummy Spine
    Spine Spine1
    Spine1 HEadDummy LeftShoulder1Dummy RightShoulderDummy
    HEadDummy HEad
    LeftShoulder1Dummy LeftShoulder1
    LeftShoulder1 LeftArm
    LeftArm LeftForeArm
    LeftForeArm LeftHand
    RightShoulderDummy RightShoulder
    RightShoulder RightArm
    RightArm RightForeArm
    RightForeArm RightHand
    LeftUpLegDummy LeftUpLeg
    LeftUpLeg LeftLeg
    LeftLeg LeftFoot
    LeftFoot LeftToes
  end

:SAMPLES-PER-SECOND 30
:FULLY-SPECIFIED
:DEGREES
48
root  -1.83556 37.3233 70.1091 -177.434 9.12579 -174.17
RightUpLeg  -26.7152 -2.46815 12.5304
RightLeg  35.3756 8.48409 -6.69746
RightFoot  -13.5437 0.0346965 -2.42413
RightToes  3.97569e-016 -3.18055e-015 -2.98177e-016
Spine  12.5588 -2.77128 3.89172
Spine1  0.993234 -3.76215 9.59582
HEad  -12.8407 14.7468 -4.33816
LeftShoulder1  -3.88251e-019 9.70628e-020 -3.87848e-018
LeftArm  -7.48576 52.0961 -72.6546
LeftForeArm  -14.1454 -33.6461 6.79765
LeftHand  -0.858331 -5.56479 9.67515
RightShoulder  8.4954 10.9891 39.2546
RightArm  17.0068 -50.7673 -3.1561
RightForeArm  10.019 14.3795 -5.40392
RightHand  -0.608709 1.03992 -10.8005
LeftUpLeg  -7.68241 12.1229 0.868334
LeftLeg  58.4105 -2.11913 21.9592
LeftFoot  7.23226 1.23467 -6.87543
LeftToes  5.30048e-011 -3.04284e-011 -3.73785e-011
49
root  -1.64073 37.3404 68.5107 -177.251 8.7899 -173.426
RightUpLeg  -24.0919 -4.76718 13.0595
RightLeg  36.1212 9.69907 -5.87599
RightFoot  -16.6917 -0.0128147 -2.15184
RightToes  3.97569e-016 -3.18055e-015 -2.98177e-016
Spine  12.8223 -2.43258 5.9696
Spine1  1.6246 -3.09546 9.30005
HEad  -13.2637 13.8252 -4.46935
LeftShoulder1  -3.88251e-019 9.70628e-020 -3.87848e-018
LeftArm  -8.78791 54.2132 -73.6535
LeftForeArm  -14.4135 -37.0385 7.80387
LeftHand  -0.860628 -5.88068 9.43113
RightShoulder  8.55168 11.0172 39.4596
RightArm  16.3859 -50.2155 -2.24709
RightForeArm  12.5738 13.8482 -4.9961
RightHand  -0.670356 1.2904 -11.4458
LeftUpLeg  -15.8543 11.8892 0.568545
LeftLeg  66.5563 -4.17825 26.8818
LeftFoot  13.9495 -0.0903131 0.78729
LeftToes  5.30048e-011 -3.04284e-011 -3.73785e-011
50
root  -1.43786 37.582 66.783 -176.894 8.11414 -173.495
RightUpLeg  -20.6468 -6.27101 12.477
RightLeg  34.9354 10.3765 -5.13431
RightFoot  -19.2769 -0.0129858 -1.42509
RightToes  3.97569e-016 -3.18055e-015 -2.98177e-016
Spine  12.2522 -2.10849 6.65078
Spine1  2.47785 -2.78366 9.40205
HEad  -13.5719 13.1419 -5.01737
LeftShoulder1  -3.88251e-019 9.70628e-020 -3.87848e-018
LeftArm  -10.6837 57.1694 -74.7874
LeftForeArm  -15.4432 -39.8247 8.66763
LeftHand  -0.838918 -5.98848 9.11282
RightShoulder  8.57601 11.0279 39.5511
RightArm  16.3294 -49.293 -0.50976
RightForeArm  13.2151 14.2327 -4.85277
RightHand  -0.785724 1.08698 -13.8323
LeftUpLeg  -22.7315 10.4818 -1.07499
LeftLeg  69.984 -5.7818 27.9495
LeftFoot  10.8166 -1.11772 5.3981
LeftToes  5.30048e-011 -3.04284e-011 -3.73785e-011
51
root  -1.24853 37.9091 64.921 -176.192 7.81171 -173.76
RightUpLeg  -16.7377 -6.27801 11.6287
RightLeg  32.2705 10.41 -4.75183
RightFoot  -21.503 0.0739291 0.0434848
RightToes  3.97569e-016 -3.18055e-015 -2.98177e-016
Spine  11.3896 -1.63173 7.60792
Spine1  2.52327 -2.1475 8.53518
HEad  -12.8711 12.3782 -5.4695
LeftShoulder1  -3.88251e-019 9.70628e-020 -3.87848e-018
LeftArm  -12.2335 60.7937 -75.6645
LeftForeArm  -16.9246 -40.922 8.9704
LeftHand  -0.823342 -5.67442 9.20454
RightShoulder  8.55595 11.0157 39.4833
RightArm  17.8107 -48.8869 1.16303
RightForeArm  9.76727 15.6926 -5.32784
RightHand  -0.830969 0.608458 -15.7389
LeftUpLeg  -28.2293 8.49364 -2.56822
LeftLeg  69.4325 -6.30918 25.147
LeftFoot  4.71739 -0.718379 4.59126
LeftToes  5.30048e-011 -3.04284e-011 -3.73785e-011
52
root  -1.07298 38.1972 62.9516 -175.388 8.12823 -174.117
RightUpLeg  -12.3081 -5.13796 10.5916
RightLeg  28.6147 9.64098 -4.423
RightFoot  -23.118 0.240257 1.92037
RightToes  3.97569e-016 -3.18055e-015 -2.98177e-016
Spine  10.6389 -0.784253 9.07068
Spine1  1.72766 -0.906115 6.32835
HEad  -11.3348 11.2163 -5.59414
LeftShoulder1  -3.88251e-019 9.70628e-020 -3.87848e-018
LeftArm  -12.957 64.3508 -76.0753
LeftForeArm  -18.5147 -39.9828 8.55971
LeftHand  -0.844142 -4.87323 10.1666
RightShoulder  8.44531 10.9552 39.0915
RightArm  21.5807 -49.4021 2.6334
RightForeArm  2.19546 18.0328 -7.07971
RightHand  -0.783931 0.173044 -15.9678
LeftUpLeg  -32.8737 6.81511 -3.67897
LeftLeg  65.7524 -5.89474 21.1561
LeftFoot  1.29879 -0.31761 2.60686
LeftToes  5.30048e-011 -3.04284e-011 -3.73785e-011
53
root  -0.876353 38.4084 60.9292 -174.784 8.52835 -174.947
RightUpLeg  -7.27973 -2.26527 8.86563
RightLeg  24.243 6.92897 -3.84013
RightFoot  -23.9231 0.358457 3.00155
RightToes  3.97569e-016 -3.18055e-015 -2.98177e-016
Spine  10.1641 0.367594 9.78958
Spine1  0.577751 0.525884 3.73741
HEad  -9.74439 9.67101 -5.54125
LeftShoulder1  -3.88251e-019 9.70628e-020 -3.87848e-018
LeftArm  -12.4592 67.5129 -75.4888
LeftForeArm  -19.8999 -37.7335 7.75354
LeftHand  -0.820048 -3.85249 10.9583
RightShoulder  8.24063 10.8456 38.3529
RightArm  26.6601 -50.4209 3.82203
RightForeArm  -6.6722 20.9242 -10.0939
RightHand  -0.749576 -0.0647297 -15.9332
LeftUpLeg  -36.6407 5.90327 -5.14991
LeftLeg  59.3511 -4.65919 17.997
LeftFoot  -1.00216 -0.320737 3.00797
LeftToes  5.30048e-011 -3.04284e-011 -3.73785e-011
